mtllib material.mtl
usemtl box_material
o Box
v -0.027019 -0.004323 -0.080000
v 0.027019 -0.004323 -0.080000
v 0.027019 -0.004323 0.080000
v -0.027019 -0.004323 -0.080000
v 0.027019 -0.004323 0.080000
v -0.027019 -0.004323 0.080000
v -0.027019 0.004323 0.080000
v 0.027019 0.004323 0.080000
v 0.027019 0.004323 -0.080000
v -0.027019 0.004323 0.080000
v 0.027019 0.004323 -0.080000
v -0.027019 0.004323 -0.080000
v -0.027019 -0.004323 -0.080000
v -0.027019 -0.004323 0.080000
v -0.027019 0.004323 0.080000
v -0.027019 -0.004323 -0.080000
v -0.027019 0.004323 0.080000
v -0.027019 0.004323 -0.080000
v 0.027019 -0.004323 -0.080000
v 0.027019 0.004323 -0.080000
v 0.027019 0.004323 0.080000
v 0.027019 -0.004323 -0.080000
v 0.027019 0.004323 0.080000
v 0.027019 -0.004323 0.080000
v -0.027019 -0.004323 0.080000
v 0.027019 -0.004323 0.080000
v 0.027019 0.004323 0.080000
v -0.027019 -0.004323 0.080000
v 0.027019 0.004323 0.080000
v -0.027019 0.004323 0.080000
v -0.027019 -0.004323 -0.080000
v -0.027019 0.004323 -0.080000
v 0.027019 0.004323 -0.080000
v -0.027019 -0.004323 -0.080000
v 0.027019 0.004323 -0.080000
v 0.027019 -0.004323 -0.080000
vt 0.312988 0.535156
vt 0.461914 0.535156
vt 0.461914 0.976562
vt 0.312988 0.535156
vt 0.461914 0.976562
vt 0.312988 0.976562
vt 0.023438 0.464844
vt 0.751953 0.464844
vt 0.751953 0.023438
vt 0.023438 0.464844
vt 0.751953 0.023438
vt 0.023438 0.023438
vt 0.796875 0.746094
vt 0.970703 0.746094
vt 0.970703 0.964844
vt 0.796875 0.746094
vt 0.970703 0.964844
vt 0.796875 0.964844
vt 0.796875 0.507812
vt 0.970703 0.507812
vt 0.970703 0.726562
vt 0.796875 0.507812
vt 0.970703 0.726562
vt 0.796875 0.726562
vt 0.796875 0.311523
vt 0.970703 0.311523
vt 0.970703 0.488281
vt 0.796875 0.311523
vt 0.970703 0.488281
vt 0.796875 0.488281
vt 0.796875 0.115234
vt 0.796875 0.291992
vt 0.970703 0.291992
vt 0.796875 0.115234
vt 0.970703 0.291992
vt 0.970703 0.115234
vn 0.000000 -1.000000 0.000000
vn 0.000000 -1.000000 0.000000
vn 0.000000 -1.000000 0.000000
vn 0.000000 -1.000000 0.000000
vn 0.000000 -1.000000 0.000000
vn 0.000000 -1.000000 0.000000
vn -0.000000 1.000000 0.000000
vn -0.000000 1.000000 0.000000
vn -0.000000 1.000000 0.000000
vn -0.000000 1.000000 0.000000
vn -0.000000 1.000000 0.000000
vn -0.000000 1.000000 0.000000
vn -1.000000 0.000000 0.000000
vn -1.000000 0.000000 0.000000
vn -1.000000 0.000000 0.000000
vn -1.000000 0.000000 0.000000
vn -1.000000 0.000000 0.000000
vn -1.000000 0.000000 0.000000
vn 1.000000 0.000000 0.000000
vn 1.000000 0.000000 0.000000
vn 1.000000 0.000000 0.000000
vn 1.000000 0.000000 0.000000
vn 1.000000 0.000000 0.000000
vn 1.000000 0.000000 0.000000
vn 0.000000 0.000000 1.000000
vn 0.000000 0.000000 1.000000
vn 0.000000 0.000000 1.000000
vn 0.000000 0.000000 1.000000
vn 0.000000 0.000000 1.000000
vn 0.000000 0.000000 1.000000
vn 0.000000 0.000000 -1.000000
vn 0.000000 0.000000 -1.000000
vn 0.000000 0.000000 -1.000000
vn 0.000000 0.000000 -1.000000
vn 0.000000 0.000000 -1.000000
vn 0.000000 0.000000 -1.000000
f 1/1/1 2/2/2 3/3/3
f 4/4/4 5/5/5 6/6/6
f 7/7/7 8/8/8 9/9/9
f 10/10/10 11/11/11 12/12/12
f 13/13/13 14/14/14 15/15/15
f 16/16/16 17/17/17 18/18/18
f 19/19/19 20/20/20 21/21/21
f 22/22/22 23/23/23 24/24/24
f 25/25/25 26/26/26 27/27/27
f 28/28/28 29/29/29 30/30/30
f 31/31/31 32/32/32 33/33/33
f 34/34/34 35/35/35 36/36/36
