<svg xmlns="http://www.w3.org/2000/svg" width="1500" height="900" viewBox="0 0 1500 900">
<rect width="100%" height="100%" fill="#f7f4ef" />
<text x="50.00" y="45.00" font-size="28" font-weight="700" fill="#1f2a36" font-family="DejaVu Sans Mono, monospace">Random Cabinet Experiment Case | seed=1002</text>
<text x="50.00" y="88.00" font-size="22" font-weight="700" fill="#8a4f00" font-family="DejaVu Sans Mono, monospace">Front View</text>
<text x="670.00" y="88.00" font-size="22" font-weight="700" fill="#8a4f00" font-family="DejaVu Sans Mono, monospace">Side View</text>
<rect x="50.00" y="110.00" width="560.00" height="700.00" fill="#fff7e7" fill-opacity="1.00" stroke="#7b5c3d" stroke-width="3.00" rx="4" ry="4" />
<rect x="50.00" y="110.00" width="28.44" height="700.00" fill="#d9d1c7" fill-opacity="1.00" stroke="#222" stroke-width="2.00" rx="4" ry="4" />
<rect x="581.56" y="110.00" width="28.44" height="700.00" fill="#d9d1c7" fill-opacity="1.00" stroke="#222" stroke-width="2.00" rx="4" ry="4" />
<rect x="50.00" y="784.70" width="560.00" height="25.30" fill="#d7b98e" fill-opacity="1.00" stroke="#9b7a54" stroke-width="1.50" rx="4" ry="4" />
<rect x="50.00" y="672.25" width="560.00" height="25.30" fill="#d7b98e" fill-opacity="1.00" stroke="#9b7a54" stroke-width="1.50" rx="4" ry="4" />
<rect x="50.00" y="559.80" width="560.00" height="25.30" fill="#d7b98e" fill-opacity="1.00" stroke="#9b7a54" stroke-width="1.50" rx="4" ry="4" />
<rect x="50.00" y="447.35" width="560.00" height="25.30" fill="#d7b98e" fill-opacity="1.00" stroke="#9b7a54" stroke-width="1.50" rx="4" ry="4" />
<rect x="50.00" y="334.90" width="560.00" height="25.30" fill="#d7b98e" fill-opacity="1.00" stroke="#9b7a54" stroke-width="1.50" rx="4" ry="4" />
<rect x="50.00" y="222.45" width="560.00" height="25.30" fill="#d7b98e" fill-opacity="1.00" stroke="#9b7a54" stroke-width="1.50" rx="4" ry="4" />
<rect x="50.00" y="110.00" width="560.00" height="25.30" fill="#d7b98e" fill-opacity="1.00" stroke="#9b7a54" stroke-width="1.50" rx="4" ry="4" />
<rect x="352.12" y="405.18" width="56.88" height="42.17" fill="#ffb347" fill-opacity="1.00" stroke="#d65a00" stroke-width="2.50" rx="4" ry="4" />
<line x1="330.58" y1="498.22" x2="330.58" y2="534.22" stroke="#00a36c" stroke-width="3.00" />
<line x1="312.58" y1="516.22" x2="348.58" y2="516.22" stroke="#00a36c" stroke-width="3.00" />
<rect x="670.00" y="110.00" width="430.00" height="700.00" fill="#fff7e7" fill-opacity="1.00" stroke="#7b5c3d" stroke-width="3.00" rx="4" ry="4" />
<rect x="1041.95" y="110.00" width="58.05" height="700.00" fill="#d9d1c7" fill-opacity="1.00" stroke="#222" stroke-width="2.00" rx="4" ry="4" />
<rect x="670.00" y="784.70" width="430.00" height="25.30" fill="#d7b98e" fill-opacity="1.00" stroke="#9b7a54" stroke-width="1.50" rx="4" ry="4" />
<rect x="670.00" y="672.25" width="430.00" height="25.30" fill="#d7b98e" fill-opacity="1.00" stroke="#9b7a54" stroke-width="1.50" rx="4" ry="4" />
<rect x="670.00" y="559.80" width="430.00" height="25.30" fill="#d7b98e" fill-opacity="1.00" stroke="#9b7a54" stroke-width="1.50" rx="4" ry="4" />
<rect x="670.00" y="447.35" width="430.00" height="25.30" fill="#d7b98e" fill-opacity="1.00" stroke="#9b7a54" stroke-width="1.50" rx="4" ry="4" />
<rect x="670.00" y="334.90" width="430.00" height="25.30" fill="#d7b98e" fill-opacity="1.00" stroke="#9b7a54" stroke-width="1.50" rx="4" ry="4" />
<rect x="670.00" y="222.45" width="430.00" height="25.30" fill="#d7b98e" fill-opacity="1.00" stroke="#9b7a54" stroke-width="1.50" rx="4" ry="4" />
<rect x="670.00" y="110.00" width="430.00" height="25.30" fill="#d7b98e" fill-opacity="1.00" stroke="#9b7a54" stroke-width="1.50" rx="4" ry="4" />
<rect x="842.00" y="405.18" width="178.45" height="42.17" fill="#ffb347" fill-opacity="1.00" stroke="#d65a00" stroke-width="2.50" rx="4" ry="4" />
<g><line x1="677.04" y1="516.22" x2="749.04" y2="516.22" stroke="#00a36c" stroke-width="4"/><polygon points="749.04,516.22 735.04,508.22 735.04,524.22" fill="#00a36c"/></g>
<line x1="670.00" y1="516.22" x2="1100.00" y2="516.22" stroke="#00a36c" stroke-width="1.50" stroke-dasharray="6 6" />
<text x="1140.00" y="120.00" font-size="22" font-weight="700" fill="#1f2a36" font-family="DejaVu Sans Mono, monospace">Scenario Parameters</text>
<text x="1140.00" y="156.00" font-size="16" font-weight="400" fill="#2f3d4a" font-family="DejaVu Sans Mono, monospace">levels=7 gap=2 target_level=3</text>
<text x="1140.00" y="192.00" font-size="16" font-weight="400" fill="#2f3d4a" font-family="DejaVu Sans Mono, monospace">center=(0.850, -0.090)</text>
<text x="1140.00" y="228.00" font-size="16" font-weight="400" fill="#2f3d4a" font-family="DejaVu Sans Mono, monospace">size=(0.200, 0.886)</text>
<text x="1140.00" y="264.00" font-size="16" font-weight="400" fill="#2f3d4a" font-family="DejaVu Sans Mono, monospace">bottom_z=0.505 level_gap=0.200</text>
<text x="1140.00" y="300.00" font-size="16" font-weight="400" fill="#2f3d4a" font-family="DejaVu Sans Mono, monospace">board/side/back=(0.045, 0.045, 0.027)</text>
<text x="1140.00" y="336.00" font-size="16" font-weight="400" fill="#2f3d4a" font-family="DejaVu Sans Mono, monospace">target_box=(0.083, 0.090, 0.075)</text>
<text x="1140.00" y="372.00" font-size="16" font-weight="400" fill="#2f3d4a" font-family="DejaVu Sans Mono, monospace">target_depth_ratio=0.140</text>
<text x="1140.00" y="408.00" font-size="16" font-weight="400" fill="#2f3d4a" font-family="DejaVu Sans Mono, monospace">target_lateral_margin=0.073</text>
<text x="1140.00" y="444.00" font-size="16" font-weight="400" fill="#2f3d4a" font-family="DejaVu Sans Mono, monospace">target_lateral_span=0.022</text>
<text x="1140.00" y="480.00" font-size="16" font-weight="400" fill="#2f3d4a" font-family="DejaVu Sans Mono, monospace">target_pose=(0.770, -0.089, 1.005)</text>
<text x="1140.00" y="516.00" font-size="16" font-weight="400" fill="#2f3d4a" font-family="DejaVu Sans Mono, monospace">clutter_count=0</text>
<text x="1140.00" y="620.00" font-size="22" font-weight="700" fill="#1f2a36" font-family="DejaVu Sans Mono, monospace">Legend</text>
<rect x="1140.00" y="644.00" width="28.00" height="18.00" fill="#ffb347" fill-opacity="1.00" stroke="#d65a00" stroke-width="1.80" rx="4" ry="4" />
<text x="1182.00" y="658.00" font-size="16" font-weight="400" fill="#111" font-family="DejaVu Sans Mono, monospace">Target medicine box</text>
<line x1="1140.00" y1="690.00" x2="1168.00" y2="690.00" stroke="#00a36c" stroke-width="3.00" />
<text x="1182.00" y="696.00" font-size="16" font-weight="400" fill="#111" font-family="DejaVu Sans Mono, monospace">Target pick pose / cabinet entry direction</text>
<rect x="1140.00" y="724.00" width="28.00" height="18.00" fill="#c6d8ff" fill-opacity="0.85" stroke="#5a78b5" stroke-width="1.80" rx="4" ry="4" />
<text x="1182.00" y="738.00" font-size="16" font-weight="400" fill="#111" font-family="DejaVu Sans Mono, monospace">Clutter box (if enabled)</text>
</svg>