<svg xmlns="http://www.w3.org/2000/svg" width="1500" height="900" viewBox="0 0 1500 900">
<rect width="100%" height="100%" fill="#f7f4ef" />
<text x="50.00" y="45.00" font-size="28" font-weight="700" fill="#1f2a36" font-family="DejaVu Sans Mono, monospace">Random Cabinet Experiment Case | seed=7004</text>
<text x="50.00" y="88.00" font-size="22" font-weight="700" fill="#8a4f00" font-family="DejaVu Sans Mono, monospace">Front View</text>
<text x="670.00" y="88.00" font-size="22" font-weight="700" fill="#8a4f00" font-family="DejaVu Sans Mono, monospace">Side View</text>
<rect x="50.00" y="110.00" width="560.00" height="700.00" fill="#fff7e7" fill-opacity="1.00" stroke="#7b5c3d" stroke-width="3.00" rx="4" ry="4" />
<rect x="50.00" y="110.00" width="42.91" height="700.00" fill="#d9d1c7" fill-opacity="1.00" stroke="#222" stroke-width="2.00" rx="4" ry="4" />
<rect x="567.09" y="110.00" width="42.91" height="700.00" fill="#d9d1c7" fill-opacity="1.00" stroke="#222" stroke-width="2.00" rx="4" ry="4" />
<rect x="50.00" y="788.16" width="560.00" height="21.84" fill="#d7b98e" fill-opacity="1.00" stroke="#9b7a54" stroke-width="1.50" rx="4" ry="4" />
<rect x="50.00" y="618.62" width="560.00" height="21.84" fill="#d7b98e" fill-opacity="1.00" stroke="#9b7a54" stroke-width="1.50" rx="4" ry="4" />
<rect x="50.00" y="449.08" width="560.00" height="21.84" fill="#d7b98e" fill-opacity="1.00" stroke="#9b7a54" stroke-width="1.50" rx="4" ry="4" />
<rect x="50.00" y="279.54" width="560.00" height="21.84" fill="#d7b98e" fill-opacity="1.00" stroke="#9b7a54" stroke-width="1.50" rx="4" ry="4" />
<rect x="50.00" y="110.00" width="560.00" height="21.84" fill="#d7b98e" fill-opacity="1.00" stroke="#9b7a54" stroke-width="1.50" rx="4" ry="4" />
<rect x="332.15" y="422.64" width="110.14" height="26.44" fill="#ffb347" fill-opacity="1.00" stroke="#d65a00" stroke-width="2.50" rx="4" ry="4" />
<line x1="304.48" y1="357.23" x2="304.48" y2="393.23" stroke="#00a36c" stroke-width="3.00" />
<line x1="286.48" y1="375.23" x2="322.48" y2="375.23" stroke="#00a36c" stroke-width="3.00" />
<rect x="670.00" y="110.00" width="430.00" height="700.00" fill="#fff7e7" fill-opacity="1.00" stroke="#7b5c3d" stroke-width="3.00" rx="4" ry="4" />
<rect x="1057.61" y="110.00" width="42.39" height="700.00" fill="#d9d1c7" fill-opacity="1.00" stroke="#222" stroke-width="2.00" rx="4" ry="4" />
<rect x="670.00" y="788.16" width="430.00" height="21.84" fill="#d7b98e" fill-opacity="1.00" stroke="#9b7a54" stroke-width="1.50" rx="4" ry="4" />
<rect x="670.00" y="618.62" width="430.00" height="21.84" fill="#d7b98e" fill-opacity="1.00" stroke="#9b7a54" stroke-width="1.50" rx="4" ry="4" />
<rect x="670.00" y="449.08" width="430.00" height="21.84" fill="#d7b98e" fill-opacity="1.00" stroke="#9b7a54" stroke-width="1.50" rx="4" ry="4" />
<rect x="670.00" y="279.54" width="430.00" height="21.84" fill="#d7b98e" fill-opacity="1.00" stroke="#9b7a54" stroke-width="1.50" rx="4" ry="4" />
<rect x="670.00" y="110.00" width="430.00" height="21.84" fill="#d7b98e" fill-opacity="1.00" stroke="#9b7a54" stroke-width="1.50" rx="4" ry="4" />
<rect x="928.40" y="422.64" width="109.01" height="26.44" fill="#ffb347" fill-opacity="1.00" stroke="#d65a00" stroke-width="2.50" rx="4" ry="4" />
<g><line x1="667.03" y1="375.23" x2="739.03" y2="375.23" stroke="#00a36c" stroke-width="4"/><polygon points="739.03,375.23 725.03,367.23 725.03,383.23" fill="#00a36c"/></g>
<line x1="670.00" y1="375.23" x2="1100.00" y2="375.23" stroke="#00a36c" stroke-width="1.50" stroke-dasharray="6 6" />
<text x="1140.00" y="120.00" font-size="22" font-weight="700" fill="#1f2a36" font-family="DejaVu Sans Mono, monospace">Scenario Parameters</text>
<text x="1140.00" y="156.00" font-size="16" font-weight="400" fill="#2f3d4a" font-family="DejaVu Sans Mono, monospace">levels=5 gap=2 target_level=2</text>
<text x="1140.00" y="192.00" font-size="16" font-weight="400" fill="#2f3d4a" font-family="DejaVu Sans Mono, monospace">center=(0.835, 0.072)</text>
<text x="1140.00" y="228.00" font-size="16" font-weight="400" fill="#2f3d4a" font-family="DejaVu Sans Mono, monospace">size=(0.213, 0.783)</text>
<text x="1140.00" y="264.00" font-size="16" font-weight="400" fill="#2f3d4a" font-family="DejaVu Sans Mono, monospace">bottom_z=0.463 level_gap=0.295</text>
<text x="1140.00" y="300.00" font-size="16" font-weight="400" fill="#2f3d4a" font-family="DejaVu Sans Mono, monospace">board/side/back=(0.038, 0.060, 0.021)</text>
<text x="1140.00" y="336.00" font-size="16" font-weight="400" fill="#2f3d4a" font-family="DejaVu Sans Mono, monospace">target_box=(0.054, 0.154, 0.046)</text>
<text x="1140.00" y="372.00" font-size="16" font-weight="400" fill="#2f3d4a" font-family="DejaVu Sans Mono, monospace">target_depth_ratio=0.101</text>
<text x="1140.00" y="408.00" font-size="16" font-weight="400" fill="#2f3d4a" font-family="DejaVu Sans Mono, monospace">target_lateral_margin=0.122</text>
<text x="1140.00" y="444.00" font-size="16" font-weight="400" fill="#2f3d4a" font-family="DejaVu Sans Mono, monospace">target_lateral_span=0.051</text>
<text x="1140.00" y="480.00" font-size="16" font-weight="400" fill="#2f3d4a" font-family="DejaVu Sans Mono, monospace">target_pose=(0.745, 0.036, 1.200)</text>
<text x="1140.00" y="516.00" font-size="16" font-weight="400" fill="#2f3d4a" font-family="DejaVu Sans Mono, monospace">clutter_count=0</text>
<text x="1140.00" y="620.00" font-size="22" font-weight="700" fill="#1f2a36" font-family="DejaVu Sans Mono, monospace">Legend</text>
<rect x="1140.00" y="644.00" width="28.00" height="18.00" fill="#ffb347" fill-opacity="1.00" stroke="#d65a00" stroke-width="1.80" rx="4" ry="4" />
<text x="1182.00" y="658.00" font-size="16" font-weight="400" fill="#111" font-family="DejaVu Sans Mono, monospace">Target medicine box</text>
<line x1="1140.00" y1="690.00" x2="1168.00" y2="690.00" stroke="#00a36c" stroke-width="3.00" />
<text x="1182.00" y="696.00" font-size="16" font-weight="400" fill="#111" font-family="DejaVu Sans Mono, monospace">Target pick pose / cabinet entry direction</text>
<rect x="1140.00" y="724.00" width="28.00" height="18.00" fill="#c6d8ff" fill-opacity="0.85" stroke="#5a78b5" stroke-width="1.80" rx="4" ry="4" />
<text x="1182.00" y="738.00" font-size="16" font-weight="400" fill="#111" font-family="DejaVu Sans Mono, monospace">Clutter box (if enabled)</text>
</svg>